<svg width="23" height="22" viewBox="0 0 23 22" fill="none" xmlns="http://www.w3.org/2000/svg">
<path d="M15.1517 6.78185L18.8392 3.10249M20.9464 1L18.8392 3.10249L20.9464 1ZM10.8214 11.1025C11.3655 11.638 11.7979 12.2757 12.0939 12.9787C12.3899 13.6817 12.5436 14.4362 12.5462 15.1988C12.5488 15.9613 12.4001 16.7168 12.1088 17.4218C11.8176 18.1268 11.3894 18.7673 10.849 19.3065C10.3086 19.8457 9.66663 20.2729 8.96008 20.5636C8.25352 20.8542 7.49632 21.0025 6.73209 21C5.96785 20.9974 5.21167 20.844 4.50708 20.5487C3.80249 20.2533 3.16342 19.8219 2.62665 19.2791C1.57109 18.1886 0.987016 16.7281 1.00022 15.2121C1.01342 13.6961 1.62285 12.246 2.69724 11.1739C3.77163 10.1019 5.22502 9.49388 6.74437 9.4807C8.26373 9.46753 9.72749 10.0503 10.8204 11.1035L10.8214 11.1025ZM10.8214 11.1025L15.1517 6.78185L10.8214 11.1025ZM15.1517 6.78185L18.3124 9.93558L22 6.25623L18.8392 3.10249L15.1517 6.78185Z" stroke="#F4FBFB" stroke-width="2" stroke-linecap="round" stroke-linejoin="round"/>
</svg>
